<svg xmlns="http://www.w3.org/2000/svg" viewBox="0 0 512 512" role="img" aria-label="คู่มือคัดกรองผู้บริจาคโลหิต">
  <defs>
    <linearGradient id="bg" x1="70" y1="50" x2="440" y2="470" gradientUnits="userSpaceOnUse">
      <stop stop-color="#2F72B7"/>
      <stop offset="1" stop-color="#10365D"/>
    </linearGradient>
    <linearGradient id="drop" x1="252" y1="178" x2="252" y2="330" gradientUnits="userSpaceOnUse">
      <stop stop-color="#F05A62"/>
      <stop offset="1" stop-color="#C72731"/>
    </linearGradient>
    <filter id="shadow" x="-20%" y="-20%" width="140%" height="150%">
      <feDropShadow dx="0" dy="16" stdDeviation="14" flood-color="#09233D" flood-opacity=".28"/>
    </filter>
  </defs>
  <rect width="512" height="512" rx="112" fill="url(#bg)"/>
  <circle cx="430" cy="84" r="92" fill="#FFFFFF" opacity=".07"/>
  <circle cx="64" cy="446" r="118" fill="#FFFFFF" opacity=".05"/>
  <g filter="url(#shadow)">
    <rect x="123" y="91" width="266" height="336" rx="38" fill="#FFFFFF"/>
    <rect x="199" y="66" width="114" height="56" rx="23" fill="#DCEAF6"/>
    <rect x="221" y="82" width="70" height="15" rx="7.5" fill="#86A9C7"/>
  </g>
  <path d="M256 147c-23 35-64 82-64 121 0 37 28 65 64 65s64-28 64-65c0-39-41-86-64-121Z" fill="url(#drop)"/>
  <path d="M236 210c-13 15-22 34-22 49 0 16 9 30 24 37" fill="none" stroke="#FFFFFF" stroke-width="13" stroke-linecap="round" opacity=".42"/>
  <rect x="167" y="354" width="108" height="16" rx="8" fill="#D9E5EF"/>
  <rect x="167" y="386" width="72" height="16" rx="8" fill="#D9E5EF"/>
  <circle cx="343" cy="356" r="57" fill="#1DA273" stroke="#FFFFFF" stroke-width="12"/>
  <path d="m318 355 18 18 34-39" fill="none" stroke="#FFFFFF" stroke-width="13" stroke-linecap="round" stroke-linejoin="round"/>
  <circle cx="139" cy="363" r="47" fill="#F4F8FC" stroke="#FFFFFF" stroke-width="9"/>
  <circle cx="132" cy="355" r="24" fill="none" stroke="#2F72B7" stroke-width="10"/>
  <path d="m150 373 27 27" stroke="#2F72B7" stroke-width="12" stroke-linecap="round"/>
</svg>
